PathFileType	4	(X/Y/Z)	D:\TRACE\v60_Jaco2_6-2-23\JustArmDRS_Motion3_1-v60.trc
DataRate	CameraRate	NumFrames	NumMarkers	Units	OrigDataRate	OrigDataStartFrame	OrigNumFrames
100.00	100.00	      14	9	mm	100.00	5056	      8089
Frame#	Time	front left toe			Front right toe			aft left toe			aft right toe			Arm			FL body			FR body			AL Body			AR Body			
		X1	Y1	Z1	X2	Y2	Z2	X3	Y3	Z3	X4	Y4	Z4	X5	Y5	Z5	X6	Y6	Z6	X7	Y7	Z7	X8	Y8	Z8	X9	Y9	Z9	

5056	50.550	-129.08821	21.23543	-234.13774	269.38522	20.06642	-168.46800	-218.59792	14.87257	404.46793	190.49908	13.03350	419.27039	34.91748	1105.36816	-599.83667	7.07534	591.20496	-346.23001	163.71002	593.52673	-324.64963	-112.21034	571.31793	590.57605	39.56509	564.13898	610.32544	
5057	50.560	-128.42035	21.05995	-234.14468	269.97940	19.85164	-168.56039	-217.73413	14.94782	404.50909	191.25882	13.10659	419.27997	35.63507	1105.16016	-600.17035	7.69243	591.14178	-346.36072	165.11015	593.28955	-324.95352	-111.83620	571.43390	590.47418	40.39742	564.50623	610.22559	
5058	50.570	-127.97755	21.14755	-234.12616	270.52939	19.65845	-168.81299	-217.39050	15.01357	404.52469	192.03842	13.00313	419.23404	36.44884	1105.07507	-600.43536	8.47434	591.12201	-346.62436	165.43771	593.14063	-324.92316	-111.53123	571.61694	590.30157	41.08165	564.60596	609.95355	
5059	50.580	-127.18063	20.96075	-234.15891	270.89224	19.48394	-168.84161	-216.89687	15.08964	404.48022	192.55968	13.00076	419.16757	37.33073	1104.90527	-600.89233	9.30368	591.12598	-346.91357	166.32141	592.85809	-324.89023	-110.62508	571.62183	590.00696	40.16467	564.80621	609.72882	
5060	50.590	-126.46230	20.86118	-234.22484	271.41364	19.53265	-168.74016	-216.20667	14.95184	404.39044	192.91522	12.99518	419.14948	38.42501	1104.64612	-601.20294	10.38863	590.75909	-346.70444	167.10938	592.69940	-325.03928	-109.70749	571.76740	589.78021	42.27165	564.60901	609.68994	
5061	50.600	-126.09636	21.03877	-234.18340	272.58420	19.79846	-168.58890	-215.09428	14.82686	404.28891	193.50923	13.05607	419.20779	38.83619	1104.67456	-601.25934	10.99762	590.78406	-346.81787	168.18019	592.64832	-325.47934	-109.07155	571.93970	589.64606	42.94421	564.72278	609.62646	
5062	50.610	-125.53565	21.13465	-234.15302	273.18399	19.72407	-168.58833	-214.70279	14.99569	404.16968	194.42014	13.25121	419.21207	39.74416	1104.62109	-601.33655	11.53580	590.79779	-347.30676	168.52237	592.65082	-325.53613	-108.40189	572.15924	589.51715	42.17264	564.97736	609.40741	
5063	50.620	-124.80785	21.10202	-234.20688	273.66132	19.77546	-168.43352	-214.50432	15.20807	404.25671	194.76451	13.25454	419.15680	41.03444	1104.52991	-601.63007	12.23499	590.75635	-347.35376	169.03226	592.57581	-325.64490	-107.90919	572.09631	589.50665	43.13698	564.97113	609.14691	
5064	50.630	-124.41683	21.13665	-234.25581	274.03598	19.71677	-168.28998	-213.92519	15.32987	404.21326	195.31010	13.42208	419.18866	41.44075	1104.62256	-601.62872	13.06994	590.79572	-347.51410	170.07796	592.56964	-325.55969	-107.14506	572.01154	589.43402	43.75116	565.11639	609.26593	
5065	50.640	-123.96732	21.20028	-234.27196	274.51904	19.62383	-168.35715	-213.21918	15.08804	404.10605	195.69682	13.32768	419.01590	42.21024	1104.65613	-601.74432	13.50684	590.94049	-347.52615	171.01282	592.62537	-325.84695	-106.48211	571.98853	589.37384	44.24557	565.09918	609.11951	
5066	50.650	-123.18940	21.19492	-234.30629	275.37704	19.70018	-168.30446	-212.39728	14.86618	404.14621	196.60294	13.22161	419.08603	43.12787	1104.65393	-601.65540	14.24014	591.04645	-347.63318	171.29849	592.58258	-325.66232	-105.59097	572.09564	589.33765	45.07087	565.05560	609.11517	
5067	50.660	-122.75419	21.15513	-234.28275	275.82571	19.60725	-168.38977	-212.16933	15.16015	404.22769	197.12622	13.01747	419.18668	44.03767	1104.66003	-601.54437	15.05489	591.00500	-347.61844	171.98380	592.52612	-325.66669	-104.93113	572.18903	589.25885	45.68268	564.95288	609.12805	
5068	50.670	-122.26447	21.21000	-234.19772	276.30164	19.64333	-168.52321	-211.61574	14.98896	404.31970	197.42581	12.74866	419.29568	45.05917	1104.62378	-601.48065	16.09625	590.68658	-347.17560	172.50111	592.55762	-325.75690	-104.34995	572.14319	589.29578	46.00305	564.89801	609.11298	
5069	50.680	-121.94883	21.33609	-234.12556	276.65891	19.64797	-168.67036	-211.31490	14.99558	404.32059	197.70547	12.66732	419.37842	45.59135	1104.75012	-601.62134	16.57985	590.86438	-347.45032	173.31787	592.50183	-325.79971	-103.78429	571.99652	589.31891	46.69570	564.86707	608.81763	
